# xmcd
#
# Track frame offsets:
#	150
#	16928
#	33323
#	50965
#	66172
#	80155
#	97027
#	114204
#	129389
#	146303
#	162479
#	180084
#
# Disc length: 2622 seconds
#
# Revision: 1
# Processed by: cddbd v1.5.2PL0 Copyright (c) Steve Scherf et al.
# Submitted via: audiograbber 1.83.01
#
DISCID=9b0a3c0c
DTITLE=Big and Rich - Gravity
DYEAR=2014
DGENRE=Country
TTITLE0=Look At You
TTITLE1=Lovin' Lately (ft. Tim McGraw)
TTITLE2=Gravity
TTITLE3=Brand New Buzz
TTITLE4=Rollin' Along
TTITLE5=Run Away With You
TTITLE6=Lose A Little Sleep
TTITLE7=Don't Wake Me Up
TTITLE8=That Kind Of Town
TTITLE9=Thank God For Pain
TTITLE10=I Came To Git Down
TTITLE11=Party Like Cowboyz (ft. Big and Rich) [Remix]
EXTD=
EXTT0=
EXTT1=
EXTT2=
EXTT3=
EXTT4=
EXTT5=
EXTT6=
EXTT7=
EXTT8=
EXTT9=
EXTT10=
EXTT11=
PLAYORDER=
